<svg xmlns="http://www.w3.org/2000/svg" version="1.1" xmlns:xlink="http://www.w3.org/1999/xlink" xmlns:svgjs="http://svgjs.dev/svgjs" width="1500" height="450" viewBox="0 0 1500 450"><g transform="matrix(1,0,0,1,-0.9090909090909918,-1.0110216193301937)"><svg viewBox="0 0 396 119" data-background-color="#fafafa" preserveAspectRatio="xMidYMid meet" height="450" width="1500" xmlns="http://www.w3.org/2000/svg" xmlns:xlink="http://www.w3.org/1999/xlink"><g id="tight-bounds" transform="matrix(1,0,0,1,0.2400000000000091,0.2673590504450942)"><svg viewBox="0 0 395.52 118.46528189910978" height="118.46528189910978" width="395.52"><g><svg viewBox="0 0 395.52 118.46528189910978" height="118.46528189910978" width="395.52"><g><svg viewBox="0 0 395.52 118.46528189910978" height="118.46528189910978" width="395.52"><g id="textblocktransform"><svg viewBox="0 0 395.52 118.46528189910978" height="118.46528189910978" width="395.52" id="textblock"><g><svg viewBox="0 0 395.52 118.46528189910978" height="118.46528189910978" width="395.52"><g transform="matrix(1,0,0,1,0,0)"><svg width="395.52" viewBox="3.3 -38.38 131.61999999999998 39.43" height="118.46528189910978" data-palette-color="#7d5a50"><g class="wordmark-text-0" data-fill-palette-color="primary" id="text-0"><path d="M11.6-1.83L6.49 0.51Q5.98 0.73 5.76 0.73L5.76 0.73Q5.54 0.73 5.3 0.56L5.3 0.56Q4.74 0.17 4.02-1.35 3.3-2.88 3.3-6.05L3.3-6.05 3.3-34.33Q3.3-34.91 3.54-35.23L3.54-35.23Q4.57-36.57 6.54-38.13L6.54-38.13Q6.88-38.38 7.15-38.38L7.15-38.38Q7.47-38.38 7.76-38.13L7.76-38.13Q8.81-37.33 9.53-36.62 10.25-35.91 10.77-35.23L10.77-35.23Q11.01-34.91 11.01-34.33L11.01-34.33 11.01-7.54Q11.01-5.93 11.28-4.8 11.55-3.66 11.91-2.98L11.91-2.98Q12.33-2.17 11.6-1.83L11.6-1.83ZM29.95 0.61L29.95 0.61Q25.83 0.61 22.78-0.72 19.72-2.05 18.04-4.86 16.35-7.67 16.35-12.11L16.35-12.11Q16.35-18.77 19.77-22.19 23.19-25.61 28.85-25.61L28.85-25.61Q32.54-25.61 35.09-24.29 37.64-22.97 38.97-20.65 40.31-18.33 40.31-15.36L40.31-15.36Q40.31-12.45 38.82-11.3 37.33-10.16 34.47-10.16L34.47-10.16 24-10.16Q24.19-7.64 25.84-6.32 27.49-5 30.32-5L30.32-5Q32.57-5 33.92-5.68 35.28-6.35 35.81-6.74L35.81-6.74Q36.28-7.08 36.86-7.06L36.86-7.06Q37.33-7.06 38.19-6.87 39.06-6.69 39.91-6.2L39.91-6.2Q40.52-5.88 40.52-5.32L40.52-5.32Q40.52-5 40.4-4.42L40.4-4.42Q40.33-4.08 40.16-3.43 39.99-2.78 39.72-2.22L39.72-2.22Q39.57-1.95 39.26-1.71L39.26-1.71Q38.77-1.37 37.68-0.81 36.59-0.24 34.71 0.18 32.83 0.61 29.95 0.61ZM23.95-15.16L23.95-15.16 31.91-15.16Q33.15-15.16 33.15-16.31L33.15-16.31Q33.15-18.04 32.07-19.23 30.98-20.41 28.81-20.41L28.81-20.41Q26.44-20.41 25.33-18.9 24.22-17.38 23.95-15.16ZM52.14 0.61L52.14 0.61Q48.55 0.61 46.44-1.4 44.33-3.42 44.33-6.96L44.33-6.96Q44.33-8.79 45-10.36 45.67-11.94 47.35-13.15 49.02-14.36 52.03-15.09 55.05-15.82 59.74-15.94L59.74-15.94Q59.74-18.16 58.63-19.14 57.51-20.12 55.29-20.12L55.29-20.12Q53.29-20.12 52.02-19.43 50.75-18.75 50.43-18.51L50.43-18.51Q50.09-18.21 49.6-18.29L49.6-18.29Q48.95-18.38 48.2-18.63 47.46-18.87 46.6-19.19L46.6-19.19Q46.48-19.24 46.33-19.35 46.19-19.46 46.16-19.68L46.16-19.68Q46.16-19.8 46.19-19.98 46.21-20.17 46.31-20.65L46.31-20.65Q46.41-21.14 46.6-21.86 46.8-22.58 46.97-22.97L46.97-22.97Q47.19-23.39 47.7-23.75L47.7-23.75Q48.12-24.1 50.21-24.85 52.31-25.61 56.29-25.61L56.29-25.61Q67.26-25.61 67.26-14.94L67.26-14.94 67.26-1.12Q67.26-0.66 67-0.33 66.74 0 66.13 0L66.13 0 62.47 0Q62.08 0 61.77-0.11 61.47-0.22 61.2-0.54L61.2-0.54 59.69-2.49 59.52-2.49Q58.39-0.85 56.5-0.12 54.61 0.61 52.14 0.61ZM54.83-5.05L54.83-5.05Q57.08-5.05 58.22-6.2 59.37-7.35 59.69-8.57L59.69-8.57 59.69-11.28Q56.29-11.28 54.6-10.75 52.9-10.23 52.34-9.39 51.78-8.54 51.78-7.57L51.78-7.57Q51.78-6.15 52.66-5.6 53.54-5.05 54.83-5.05ZM81.56-22.17L81.56-20.36 81.66-20.36Q83.49-25.44 88.25-25.44L88.25-25.44Q88.86-25.44 89.25-25.38 89.64-25.32 89.79-25.27L89.79-25.27Q90.15-25.15 90.15-24.71L90.15-24.71 90.15-18.82Q90.15-18.07 89.27-18.41L89.27-18.41Q88.98-18.53 88.43-18.66 87.88-18.8 86.91-18.8L86.91-18.8Q84.39-18.8 82.98-16.96 81.56-15.11 81.56-11.94L81.56-11.94 81.56-1.29Q81.56-0.56 81.25-0.28 80.95 0 80.22 0L80.22 0 75.19 0Q74.46 0 74.15-0.28 73.85-0.56 73.85-1.29L73.85-1.29 73.85-21.75Q73.85-22.34 74.09-22.66L74.09-22.66Q74.6-23.34 75.32-24.05 76.04-24.76 77.09-25.56L77.09-25.56Q77.29-25.71 77.48-25.76 77.68-25.81 77.82-25.81L77.82-25.81Q78.17-25.81 78.51-25.56L78.51-25.56Q80.53-23.97 81.34-22.85L81.34-22.85Q81.56-22.56 81.56-22.17L81.56-22.17ZM117.96-15.55L117.96-15.55 117.96-1.29Q117.96-0.56 117.65-0.28 117.35 0 116.62 0L116.62 0 111.59 0Q110.85 0 110.55-0.28 110.24-0.56 110.24-1.29L110.24-1.29 110.24-14.28Q110.24-16.94 109.12-18.16 108-19.38 106.07-19.38L106.07-19.38Q104.14-19.38 103.1-18.55 102.07-17.72 101.5-16.46L101.5-16.46 101.5-1.29Q101.5-0.56 101.2-0.28 100.89 0 100.16 0L100.16 0 95.13 0Q94.4 0 94.09-0.28 93.79-0.56 93.79-1.29L93.79-1.29 93.79-21.75Q93.79-22.34 94.03-22.66L94.03-22.66Q94.55-23.34 95.27-24.05 95.99-24.76 97.04-25.56L97.04-25.56Q97.35-25.81 97.65-25.81L97.65-25.81Q97.91-25.81 98.26-25.56L98.26-25.56Q99.28-24.76 100.01-24.02 100.75-23.29 101.31-22.51L101.31-22.51 101.43-22.51Q101.85-23.05 102.68-23.77 103.51-24.49 105.01-25.05 106.51-25.61 108.85-25.61L108.85-25.61Q111.15-25.61 113.22-24.68 115.3-23.75 116.63-21.56 117.96-19.36 117.96-15.55ZM131.46-12.35L127.31-12.35Q126.26-12.35 126.21-13.53L126.21-13.53 125.28-33.81Q125.23-35.01 126.43-35.01L126.43-35.01 132.38-35.01Q133.58-35.01 133.53-33.81L133.53-33.81 132.56-13.53Q132.51-12.35 131.46-12.35L131.46-12.35ZM124.33-4.22L124.33-4.22Q124.33-4.54 124.54-4.8 124.74-5.05 125.09-5.47L125.09-5.47Q125.82-6.3 126.77-7.21 127.72-8.13 128.72-8.98L128.72-8.98Q129.33-9.47 129.63-9.47L129.63-9.47Q129.92-9.47 130.58-8.98L130.58-8.98Q132.63-7.2 134.17-5.47L134.17-5.47Q134.48-5.05 134.7-4.8 134.92-4.54 134.92-4.22L134.92-4.22Q134.92-3.88 134.69-3.61 134.46-3.34 134.14-2.91L134.14-2.91Q133.43-2.1 132.49-1.21 131.55-0.32 130.58 0.54L130.58 0.54Q129.97 1.05 129.63 1.05L129.63 1.05Q129.36 1.05 128.67 0.54L128.67 0.54Q127.62-0.32 126.72-1.22 125.82-2.12 125.09-2.98L125.09-2.98Q124.74-3.39 124.54-3.64 124.33-3.88 124.33-4.22Z" fill="white" data-fill-palette-color="primary"></path></g></svg></g></svg></g></svg></g></svg></g><g></g></svg></g><defs></defs></svg><rect width="395.52" height="118.46528189910978" fill="none" stroke="none" visibility="hidden"></rect></g></svg></g></svg>